<svg width="269" height="55" viewBox="0 0 269 55" fill="none" xmlns="http://www.w3.org/2000/svg">
<path d="M0.184 54V0.359995H35.968V9H9.976V23.832H32.728V32.472H9.976V54H0.184ZM43.0195 54V14.832H52.4515V54H43.0195ZM43.0195 10.44V0.359995H52.4515V10.44H43.0195ZM62.6001 54V14.832H71.4561V22.536L70.7361 21.168C71.6481 18.816 73.1361 17.04 75.2001 15.84C77.3121 14.592 79.7601 13.968 82.5441 13.968C85.4241 13.968 87.9681 14.592 90.1761 15.84C92.4321 17.088 94.1841 18.84 95.4321 21.096C96.6801 23.304 97.3041 25.872 97.3041 28.8V54H87.8721V31.032C87.8721 29.304 87.5361 27.816 86.8641 26.568C86.1921 25.32 85.2561 24.36 84.0561 23.688C82.9041 22.968 81.5361 22.608 79.9521 22.608C78.4161 22.608 77.0481 22.968 75.8481 23.688C74.6481 24.36 73.7121 25.32 73.0401 26.568C72.3681 27.816 72.0321 29.304 72.0321 31.032V54H62.6001Z" fill="#0D6EFD"/>
<path d="M118.672 54L103.552 15.768H108.376L121.768 50.184H120.112L133.504 15.768H138.472L123.136 54H118.672ZM164.09 54.864C160.442 54.864 157.154 54 154.226 52.272C151.298 50.544 148.97 48.168 147.242 45.144C145.562 42.072 144.722 38.64 144.722 34.848C144.722 31.056 145.562 27.648 147.242 24.624C148.97 21.6 151.274 19.224 154.154 17.496C157.082 15.768 160.394 14.904 164.09 14.904C167.738 14.904 171.026 15.768 173.954 17.496C176.882 19.224 179.186 21.6 180.866 24.624C182.546 27.6 183.386 31.008 183.386 34.848C183.386 38.688 182.522 42.12 180.794 45.144C179.066 48.168 176.738 50.544 173.81 52.272C170.93 54 167.69 54.864 164.09 54.864ZM164.09 50.616C166.826 50.616 169.298 49.944 171.506 48.6C173.762 47.208 175.538 45.312 176.834 42.912C178.13 40.512 178.778 37.824 178.778 34.848C178.778 31.872 178.13 29.208 176.834 26.856C175.538 24.504 173.786 22.632 171.578 21.24C169.37 19.848 166.874 19.152 164.09 19.152C161.306 19.152 158.786 19.848 156.53 21.24C154.322 22.584 152.57 24.456 151.274 26.856C149.978 29.208 149.33 31.872 149.33 34.848C149.33 37.824 149.978 40.512 151.274 42.912C152.618 45.312 154.394 47.208 156.602 48.6C158.81 49.944 161.306 50.616 164.09 50.616ZM195.207 54V15.768H199.527V22.896L198.735 22.248C199.551 20.088 200.943 18.384 202.911 17.136C204.927 15.888 207.303 15.264 210.039 15.264H212.487V19.584H209.535C206.415 19.584 203.967 20.592 202.191 22.608C200.415 24.576 199.527 27.24 199.527 30.6V54H195.207ZM221.046 54V15.768H225.366V54H221.046ZM221.046 8.28V0.359995H225.366V8.28H221.046ZM249.602 54.864C247.202 54.864 245.066 54.408 243.194 53.496C241.322 52.584 239.834 51.312 238.73 49.68C237.626 48.048 237.074 46.176 237.074 44.064C237.074 42.192 237.482 40.44 238.298 38.808C239.114 37.176 240.434 35.784 242.258 34.632C244.082 33.432 246.458 32.592 249.386 32.112L264.866 29.52V33.552L250.538 35.928C247.274 36.456 244.97 37.44 243.626 38.88C242.282 40.32 241.61 42 241.61 43.92C241.61 45.984 242.378 47.664 243.914 48.96C245.498 50.256 247.49 50.904 249.89 50.904C252.674 50.904 255.098 50.28 257.162 49.032C259.226 47.736 260.834 46.056 261.986 43.992C263.138 41.88 263.714 39.576 263.714 37.08V27.576C263.714 25.032 262.802 22.968 260.978 21.384C259.154 19.8 256.778 19.008 253.85 19.008C251.45 19.008 249.29 19.608 247.37 20.808C245.45 22.008 243.986 23.568 242.978 25.488L239.09 23.4C239.81 21.864 240.914 20.448 242.402 19.152C243.89 17.856 245.618 16.824 247.586 16.056C249.554 15.288 251.642 14.904 253.85 14.904C256.634 14.904 259.082 15.456 261.194 16.56C263.354 17.616 265.034 19.104 266.234 21.024C267.434 22.896 268.034 25.08 268.034 27.576V54H263.714V46.008L264.218 46.368C263.594 47.904 262.562 49.32 261.122 50.616C259.682 51.864 257.978 52.896 256.01 53.712C254.09 54.48 251.954 54.864 249.602 54.864Z" fill="#22C55E"/>
</svg>
